<svg width="18" height="20" viewBox="0 0 18 20" fill="none" xmlns="http://www.w3.org/2000/svg">
<path d="M16.437 13.516L11.012 4.11998C10.592 3.39298 9.84005 2.95898 9.00005 2.95898C8.16005 2.95898 7.40805 3.39298 6.98805 4.11998L1.56305 13.516C1.14305 14.243 1.14305 15.111 1.56305 15.838C1.98305 16.566 2.73505 17 3.57505 17H14.425C15.265 17 16.017 16.566 16.437 15.838C16.857 15.111 16.857 14.243 16.437 13.516ZM8.25005 7.49998C8.25005 7.08598 8.58605 6.74998 9.00005 6.74998C9.41405 6.74998 9.75005 7.08598 9.75005 7.49998V11C9.75005 11.414 9.41405 11.75 9.00005 11.75C8.58605 11.75 8.25005 11.414 8.25005 11V7.49998ZM9.00005 14.569C8.44805 14.569 8.00005 14.12 8.00005 13.569C8.00005 13.018 8.44805 12.569 9.00005 12.569C9.55205 12.569 10 13.018 10 13.569C10 14.12 9.55205 14.569 9.00005 14.569Z" fill="#FC8943"/>
</svg>
